name C:\Users\u0150099\Documents\master_thesis\3dpredictsim\Results\debug\Fal_s1_mtjc4_sc_cspx10_oy2_MTc2_MTPm_k1_d01_MTJm_nl_MG_exp5_table_d01_PF_Natali2010_ls146_ig21.mot
datacolumns 128
datarows 4
range 0.53031789 0.56213697
endheader
time	pelvis_tilt	pelvis_list	pelvis_rotation	pelvis_tx	pelvis_ty	pelvis_tz	hip_flexion_l	hip_adduction_l	hip_rotation_l	hip_flexion_r	hip_adduction_r	hip_rotation_r	knee_angle_l	knee_angle_r	ankle_angle_l	ankle_angle_r	subtalar_angle_l	subtalar_angle_r	mtj_angle_l	mtj_angle_r	mtp_angle_l	mtp_angle_r	lumbar_extension	lumbar_bending	lumbar_rotation	arm_flex_l	arm_add_l	arm_rot_l	arm_flex_r	arm_add_r	arm_rot_r	elbow_flex_l	elbow_flex_r	pro_sup_l	pro_sup_r	glut_med1_l/activation	glut_med2_l/activation	glut_med3_l/activation	glut_min1_l/activation	glut_min2_l/activation	glut_min3_l/activation	semimem_l/activation	semiten_l/activation	bifemlh_l/activation	bifemsh_l/activation	sar_l/activation	add_long_l/activation	add_brev_l/activation	add_mag1_l/activation	add_mag2_l/activation	add_mag3_l/activation	tfl_l/activation	pect_l/activation	grac_l/activation	glut_max1_l/activation	glut_max2_l/activation	glut_max3_l/activation	iliacus_l/activation	psoas_l/activation	quad_fem_l/activation	gem_l/activation	peri_l/activation	rect_fem_l/activation	vas_med_l/activation	vas_int_l/activation	vas_lat_l/activation	med_gas_l/activation	lat_gas_l/activation	soleus_l/activation	tib_post_l/activation	flex_dig_l/activation	flex_hal_l/activation	tib_ant_l/activation	per_brev_l/activation	per_long_l/activation	per_tert_l/activation	ext_dig_l/activation	ext_hal_l/activation	ercspn_l/activation	intobl_l/activation	extobl_l/activation	glut_med1_r/activation	glut_med2_r/activation	glut_med3_r/activation	glut_min1_r/activation	glut_min2_r/activation	glut_min3_r/activation	semimem_r/activation	semiten_r/activation	bifemlh_r/activation	bifemsh_r/activation	sar_r/activation	add_long_r/activation	add_brev_r/activation	add_mag1_r/activation	add_mag2_r/activation	add_mag3_r/activation	tfl_r/activation	pect_r/activation	grac_r/activation	glut_max1_r/activation	glut_max2_r/activation	glut_max3_r/activation	iliacus_r/activation	psoas_r/activation	quad_fem_r/activation	gem_r/activation	peri_r/activation	rect_fem_r/activation	vas_med_r/activation	vas_int_r/activation	vas_lat_r/activation	med_gas_r/activation	lat_gas_r/activation	soleus_r/activation	tib_post_r/activation	flex_dig_r/activation	flex_hal_r/activation	tib_ant_r/activation	per_brev_r/activation	per_long_r/activation	per_tert_r/activation	ext_dig_r/activation	ext_hal_r/activation	ercspn_r/activation	intobl_r/activation	extobl_r/activation	
          0.53031789	         -2.92593764	          2.29867637	         -3.79558682	          0.70532280	          0.90679510	          0.00378675	         31.22990104	          2.62478387	         -6.60342221	        -10.76958871	          0.65246138	          3.06570897	        -16.65803113	        -20.55028149	         11.53089846	          7.12999299	          0.76238757	          0.05632538	          2.72940247	          1.12969134	         -3.36507257	         20.94980771	         -4.59097913	         -0.82826223	          1.51360021	         -3.66799364	        -13.49847327	          7.96278390	          5.16699335	        -13.63990837	         19.32333533	         23.02840468	         36.20481875	         86.51662706	         86.51662706	          0.05000002	          0.05000031	          0.05000012	          0.05004334	          0.05000399	          0.05000035	          0.30879171	          0.08147933	          0.08147937	          0.08026234	          0.08678765	          0.05538222	          0.07386285	          0.05749650	          0.05000021	          0.18781345	          0.05000004	          0.05000044	          0.05000017	          0.05000012	          0.05000005	          0.19906842	          0.09383704	          0.09300097	          0.15783356	          0.06927814	          0.05883882	          0.05000000	          0.05000004	          0.05000003	          0.05000002	          0.05891841	          0.05213205	          0.05195059	          0.05000003	          0.06923968	          0.05000022	          0.40353877	          0.05310354	          0.15349763	          0.22449239	          0.59056092	          0.38085710	          0.07621668	          0.09099091	          0.11068431	          0.24987993	          0.05000001	          0.05000000	          0.48656893	          0.16128972	          0.05883928	          0.05000012	          0.05000001	          0.05000000	          0.05000001	          0.05016208	          0.05000017	          0.05000003	          0.05000003	          0.05000012	          0.05000009	          0.44835823	          0.05000039	          0.05000002	          0.05000009	          0.05000005	          0.05000003	          0.12806405	          0.52068010	          0.05000000	          0.05000001	          0.05000000	          0.51548146	          0.18240547	          0.18281902	          0.15107089	          0.42871143	          0.59508799	          0.21610139	          0.41912636	          0.56950273	          0.49424135	          0.05000000	          0.08161589	          0.24449167	          0.05000000	          0.05000000	          0.08148421	          0.05000000	          0.05000000	          0.05000000	
          0.54092425	         -2.92931497	          2.33832680	         -4.17305289	          0.72191050	          0.90559857	          0.00350844	         31.12794074	          2.71413331	         -6.45293052	        -11.84462132	          0.20136324	          2.65130276	        -16.66743217	        -20.21824081	         11.23226970	          6.28348805	          0.62517253	          1.13344006	          2.87310083	          0.13360044	         -3.26035401	         23.19622505	         -4.43623148	         -0.95257223	          1.62112709	         -4.51075206	        -13.46811849	          7.29211279	          4.93556909	        -13.60193877	         19.37686868	         22.61280292	         37.52103790	         86.51662706	         86.51662706	          0.09310401	          0.05000005	          0.05883854	          0.05000002	          0.05000002	          0.05000027	          0.29803991	          0.06923968	          0.06923969	          0.06923968	          0.09588248	          0.05057579	          0.06484086	          0.08933468	          0.05000015	          0.22257114	          0.05000023	          0.05001517	          0.06923969	          0.05000068	          0.05376876	          0.23974683	          0.09525838	          0.09588259	          0.19849761	          0.05887139	          0.05000019	          0.05000000	          0.05000000	          0.05000000	          0.05000000	          0.05883862	          0.05883862	          0.05549620	          0.06923967	          0.05883865	          0.06255403	          0.40558752	          0.07719449	          0.14154944	          0.20399220	          0.59214670	          0.40128072	          0.07345856	          0.10424826	          0.09405752	          0.21234343	          0.05000000	          0.05000000	          0.41347745	          0.13706108	          0.05000056	          0.05000009	          0.05000000	          0.05000000	          0.05000000	          0.05000006	          0.07299760	          0.05032098	          0.05000003	          0.05000014	          0.08399819	          0.38100684	          0.05000340	          0.05000001	          0.05000010	          0.05000006	          0.05000004	          0.10882650	          0.55286605	          0.05000000	          0.05000000	          0.05000000	          0.44977536	          0.18307399	          0.18155630	          0.15163942	          0.40704745	          0.56731104	          0.19793009	          0.35616608	          0.61009195	          0.42868640	          0.05000000	          0.06935570	          0.20776458	          0.05000000	          0.05000000	          0.06924380	          0.05000000	          0.05000000	          0.05000000	
          0.55153061	         -2.93017142	          2.37206759	         -4.53884439	          0.73876326	          0.90435828	          0.00319957	         31.03848023	          2.80120322	         -6.26895852	        -12.82421019	         -0.25816164	          2.21274881	        -17.39176719	        -20.04749238	         10.57443956	          5.30789404	          0.48528598	          2.22912854	          3.02623527	         -0.95347782	         -3.19325389	         25.62104938	         -4.26904945	         -1.07580444	          1.72483595	         -5.39000439	        -13.45296480	          6.82452535	          4.63926199	        -13.56584227	         19.38594729	         22.25186410	         38.83225384	         86.51662706	         86.51662706	          0.07911811	          0.05000009	          0.05000001	          0.05883836	          0.05000352	          0.05000006	          0.25326890	          0.05883862	          0.05883863	          0.05883862	          0.08147930	          0.06783898	          0.05510065	          0.07591506	          0.18206947	          0.25835572	          0.06923960	          0.05000032	          0.05883864	          0.05000007	          0.05000004	          0.30207074	          0.08147935	          0.08147935	          0.29636375	          0.08147824	          0.05000005	          0.08147937	          0.05000001	          0.18065630	          0.05000000	          0.05000000	          0.05000000	          0.05000000	          0.05883862	          0.05000003	          0.05315729	          0.47342284	          0.12252865	          0.14842590	          0.28249885	          0.66247712	          0.52921841	          0.07069970	          0.08906370	          0.07992838	          0.18044559	          0.05000000	          0.05000000	          0.35136562	          0.11647202	          0.05000002	          0.05000057	          0.05000002	          0.05000001	          0.05000002	          0.05000003	          0.08154277	          0.23634216	          0.05077230	          0.05058525	          0.09787200	          0.32377927	          0.05000015	          0.05000003	          0.05000011	          0.05000008	          0.05000008	          0.09247879	          0.53229085	          0.05000000	          0.05000004	          0.05888702	          0.38221094	          0.18004400	          0.17987296	          0.15121131	          0.38113940	          0.52818073	          0.16888171	          0.30266346	          0.60739381	          0.36428994	          0.09924966	          0.05893722	          0.17655456	          0.05000000	          0.05000000	          0.05884213	          0.05000000	          0.05000001	          0.05000000	
          0.56213697	         -2.92901055	          2.39591932	         -4.88522408	          0.75584605	          0.90306768	          0.00286264	         30.89555615	          2.88272560	         -6.04702714	        -13.67999724	         -0.71382344	          1.78397085	        -18.72151518	        -20.09728199	          9.76106607	          4.22667632	          0.30023022	          3.34005748	          3.18952366	         -2.04122562	         -3.08466138	         27.94721197	         -4.09099048	         -1.19295336	          1.82330669	         -6.28983514	        -13.44972027	          6.53391990	          4.27733316	        -13.54650593	         19.38756402	         21.93010568	         40.15559485	         86.51662706	         86.51662706	          0.22361716	          0.05000000	          0.28101862	          0.05000002	          0.05000001	          0.05000002	          0.21522331	          0.05000000	          0.05000000	          0.05000000	          0.06923965	          0.06923984	          0.28754169	          0.19756978	          0.21055949	          0.31253653	          0.05883858	          0.06923936	          0.05000001	          0.05000001	          0.18092516	          0.38210422	          0.06923968	          0.06923967	          0.25184454	          0.06923876	          0.16796736	          0.06923969	          0.13391061	          0.18568963	          0.10963411	          0.06923967	          0.06923968	          0.06820886	          0.05000000	          0.05000000	          0.05000000	          0.59971692	          0.13224192	          0.16907311	          0.24006239	          0.69472309	          0.52210646	          0.07582068	          0.12984169	          0.06792168	          0.15333938	          0.05883861	          0.05883862	          0.29858413	          0.09897581	          0.05883860	          0.05000009	          0.05910684	          0.06263828	          0.05000003	          0.05883857	          0.16518511	          0.45858895	          0.31625006	          0.15490378	          0.15589461	          0.27514180	          0.06898273	          0.05883916	          0.05883862	          0.05883869	          0.07474047	          0.07858680	          0.59053527	          0.07440286	          0.05883863	          0.05004116	          0.32479591	          0.15299815	          0.15285281	          0.12849666	          0.32388534	          0.44883839	          0.14351261	          0.25719791	          0.51615227	          0.30956698	          0.28703939	          0.13509447	          0.15336381	          0.05000000	          0.05000000	          0.05000297	          0.08254774	          0.05000001	          0.05000000	
